# xmcd CD database file
#
# Track frame offsets:
#	150
#	11986
#	24146
#	34983
#	48265
#	56697
#	67736
#	78981
#	88399
#	101550
#	117667
#	128747
#	142474
#	154717
#	171941
#	183408
#	196435
#	208517
#	219769
#	230386
#	242739
#	257247
#
# Disc length: 3622 seconds
#
# Revision: 1
# Processed by: cddbd v1.5.2PL0 Copyright (c) Steve Scherf et al.
# Submitted via: CDex 1.70beta2
#
DISCID=3b0e2416
DTITLE=Various Artist - Something Swingin' 2.2
DYEAR=2003
DGENRE=Jazz
TTITLE0=Telly Savalas - Some Broken Hearts Never Mend
TTITLE1=Nancy Sinatra - These Boots Are Made For Walking
TTITLE2=Chris Montez - Let's Dance
TTITLE3=Trini Lopez - If I Had A Hammer
TTITLE4=Gerry and The Peacemakers - How Do You Do It
TTITLE5=Helen Shapiro - Walking Back To Happiness
TTITLE6=Rosemary Clooney - Mambo Italiano
TTITLE7=Andy Williams - House Of Bamboo
TTITLE8=Louis Prima - Buona Sera
TTITLE9=Nina Simone - My Baby Just Cares For Me
TTITLE10=Dusty Springfield - I'll Try Anything
TTITLE11=Ella Fitzgerald - Night And Day
TTITLE12=Nat King Cole - Let There Be Love
TTITLE13=Vic Damone - Smoke Gets In Your Eyes
TTITLE14=Paul Mauriat Orchestra - Love Is Blue
TTITLE15=Dionne Warwick - Do You Know The Way To San Jose
TTITLE16=Mel Torme - Comin' Home Baby
TTITLE17=Harpers Bizarre - 59th Street Bridge Song
TTITLE18=Percy Faith - A Summer Place Theme
TTITLE19=Jackie Trent - Where Are You Now (My Love)
TTITLE20=Petula Clark - This Is My Song
TTITLE21=Gary Puckett and The Union Gap  - Young Girl
EXTD=YEAR: 2003
EXTT0=
EXTT1=
EXTT2=
EXTT3=
EXTT4=
EXTT5=
EXTT6=
EXTT7=
EXTT8=
EXTT9=
EXTT10=
EXTT11=
EXTT12=
EXTT13=
EXTT14=
EXTT15=
EXTT16=
EXTT17=
EXTT18=
EXTT19=
EXTT20=
EXTT21=
PLAYORDER=
